<svg xmlns="http://www.w3.org/2000/svg" width="100" height="100" viewBox="0 0 100 100"><path d="M36.4-.3h30C76.7-.3 86.4 1.4 94 9c6.4 7.7 6.3 18.5 6.3 28.1v9.5l.1 9.8c0 26.8 0 26.8-7.8 36-7.9 7.8-19.2 7.9-29.7 7.9h-9.5l-9.8.1c-26.8 0-26.8 0-36-7.7C0 84.7-.3 74-.3 63.6v-3.3-6.7-10.3-6.6-3C-.4 23.3 1.3 13.5 9 6 16.7-.3 27-.3 36.4-.3z" fill="#FCF7E2"/><path d="M21 71h52l-2 4-1 2.2C69 79 69 79 67 80l-4.1.5-2.5.3-2.5.2-2.6.3-6.3.7 2.8.2 3.6.2 3.6.3c3 .3 3 .3 5 1.3-1.5 4.1-3.5 7.4-6 11-9.2-4-16.3-8.2-23-16 3.3-2.2 4.8-2.4 8.7-2.6l3-.3L49 76c-3-.9-5.8-1.1-8.9-1.2l-2.8-.1-5.8-.1-2.8-.1-2.5-.1C24 74 24 74 21 71z" fill="#EBB59E"/><path d="M17 40h7l5 13 2-13h7c-2 18.3-2 18.3-4 27h-6l-2.5-5.9-1.5-3.3C23 55 23 55 23 53h-2l-1 14h-7l2-16.9.5-3.8C16 43 16 43 17 40z" fill="#783C2C"/><path d="M46 39.8h10.4c2.2.2 4.4.2 6.6.2v6H48l-2 15h9v-5h-5c1.9-4.8 1.9-4.8 3-6h9.9c-.1 2.3-.4 4.6-.7 6.8l-.4 3.9C61 64 60.7 65 58 67c-3 .3-5.6.4-8.5.3H47c-5.8 0-5.8 0-8.1-2.3-.1-7.5 1-15.7 3-23 2-2 2-2 4-2.2z" fill="#602417"/><path d="M47 26c5.4 1.1 10.7 3.2 16 5l3.1 1.2 8 2.8v1l-26 1v1l15 1v1l-19 1c-1.9 4.4-2.6 7.7-3.3 12.3 0 1.2-.3 2.5-.5 3.7l-.3 3h-3c-1.2-7.2-.6-13 1-20h-6l3-3-15-1c3-5 3-5 6-6 1.4.6 2.7 1.2 4.1 2 2.4.8 2.4.8 5 1 2.5-1.6 4.4-3.3 6.5-5.5C44 26 44 26 47 26z" fill="#F6CD99"/><path d="M77 39.8l6 .2c2.2 9.1 3.1 17.7 3 27h-6l-1-5-7-1-2 6h-7l5-12.4c.3-1.2.8-2.3 1.2-3.5l1.4-3.4 1.3-3.2c2-4.4 2-4.4 5-4.7z" fill="#622619"/><path d="M63 40c3 3.5 5.4 6.7 7 11-.8 3.4-.8 3.4-2.3 6.9l-1.5 3.5L65 64l-1-2-3 1 .4-4.8.3-2.7C62 53 62 53 63 50c-3.4 0-6.7.2-10 1-2.2 2.4-2.2 2.4-3 5h5v5h-9l.4-5.8.3-3.2c.3-3 .3-3 1.3-6h15v-6z" fill="#F3DBB8"/><path d="M17 40h7l2 4.3 1.1 2.4C28 49 28 49 28 52l-7 1-1 14h-7l2-16.9.5-3.8C16 43 16 43 17 40z" fill="#955846"/><path d="M24 30l2 1-3 3h1.8l19-.1 7.2-.1H69.9C72 34 72 34 74 36l-26 1v1l15 1v1l-19 1c-1.8 4.4-2.5 7.7-3.1 12.3l-.5 3.8L40 60h-3c-1.2-7.1-.6-13 1-20h-6l3-3-15-1c3-5 3-5 4-6z" fill="#F0DDBE"/><path d="M21 71h52c-2 4-2 4-4 6l-3-2-4-1v2c-3 1-4.9 1.2-8 1.2h-2.5C49 77 49 77 47.2 76c-2.6-1.2-4.3-1.3-7.1-1.3l-2.8-.1-5.8-.1-2.8-.1h-2.5C24 74 24 74 21 71z" fill="#ECBEA5"/><path d="M83 40c1.5 3 1.1 5.7 1 9-1 1-1 1-3.6 1H78v6h-3v-5l-6 2c4.1-13.6 4.1-13.6 14-13z" fill="#895240"/><path d="M46 39.8h10.4c2.2.2 4.4.2 6.6.2v6H48l-1 3v-2l-5 1-1 2c1-9.7 1-9.7 5-10.2z" fill="#905241"/><path d="M30 12h1l.6 1.9.8 2.4.7 2.4c.9 2.5.9 2.5 2.9 5.3-2.1 2-2.1 2-5 4-3-.2-5.2-.6-8-2 1.8-5 4.4-9.4 7-14z" fill="#F6D09D"/><path d="M47 47c.2 11.6.2 11.6-1 15-2.3 1.5-4.4 2.1-7 3l.4-5.7.2-3.2c.4-3.1 1-5.4 2.4-8.1 2-1 2-1 5-1z" fill="#793D2D"/><path d="M61 7h1l-.4 7.8-.1 2.2c-.2 3.7-.5 6.8-2.5 10l-7-2c1.3-4.5 3.2-8.3 5.6-12.4l1.8-3.2L61 7zM73 12c1.2 4 .7 7.6 0 11.8l-.2 2.1L72 31l-7-1c-1-3-1-3-.3-4.7l1.2-1.9 1.2-2 1.3-2.1 1.4-2.1L73 12z" fill="#F6D09E"/><path d="M48 5h1v6.3l.1 3.5c-.1 2.6-.3 4.7-1.1 7.2l-7-1-1-3c1.2-2.3 2.4-4.5 3.9-6.7L45 9.5 48 5z" fill="#F6D19F"/><path d="M21 54l-1 13h-7l.3-4.3.2-2.4c.5-2.7 1.3-3.6 3.5-5.3 3-1 3-1 4-1z" fill="#7E4333"/><path d="M55.3 49.9h5.6l2 .1c-.2 2.6-.6 5.3-1 8l-2-2-5 2v-2h-5c2.4-6 2.4-6 5.4-6.1z" fill="#7F4333"/><path d="M31 40h7l-1 11h-7l1-11z" fill="#965B4A"/><path d="M38 40l2 1v2h2l-2 17h-3c-1.2-7.1-.6-13 1-20z" fill="#EBCBA2"/><path d="M83 23h1v12c-2 1-2 1-5.1 0L76 34l2.4-4.4 1.3-2.4C81 25 81 25 83 23z" fill="#F6D1A1"/><path d="M84 44c3 2.6 4.5 5.6 6.2 9.2l1.6 3.3L93 59c-3-1-3-1-5-2l-1 2-2-1c-.4-3.2-.4-3.2-.6-7l-.3-4-.1-3z" fill="#F2DEC0"/><path d="M63 51c2 .8 2 .8 4 2 1.1 3.4.9 4-.4 7.2l-.9 2.2L65 64l-1-2-3 1 .4-4.9.3-2.7C62 53 62 53 63 51z" fill="#F3E6CF"/><path d="M63 40c1.5 1.3 1.5 1.3 3 3 0 3 0 3-1.2 4.7-2.5 1.8-4.2 1.7-7.2 1.7h-2.9C52 49 52 49 48 46h15v-6z" fill="#EFCCA5"/><path d="M66 45c2.2 2 3 3 4 6l-2 3h-4l-1-7 3-2z" fill="#F5DAB1"/><path d="M46 56l1 2 2-1h6v4h-9v-5z" fill="#E8D8C3"/><path d="M40 49v11h-3l-1-9c3-2 3-2 4-2z" fill="#F0DDC2"/><path d="M57 73h14l-2 4-3-2c-2.3-.5-2.3-.5-4.7-.6l-2.4-.3L57 74v-1z" fill="#F3C797"/><path d="M48 53h2v3h5v1l-8 1 1-5z" fill="#F7EED8"/></svg>