<svg xmlns="http://www.w3.org/2000/svg" width="200" height="200"><path d="M74.7-.4h53.6c9.6 0 19 .2 28.6 1.7l2 .3c11.8 2.2 22.8 8.4 30 17.9 11.7 17.3 11.4 36.7 11.4 56.8V126.4c0 21.2-.4 41.8-15 58.6-8.1 7.8-19.3 12.6-30.3 14l-2.2.3c-9.5 1-19 .9-28.5.9H73.7c-21.2.1-42.5-.4-59-15.4-15.2-16.6-15-38.1-15-59.1v-6.1-12.8-16.2-12.7-6c-.1-9.7 0-19.2 1.6-28.8 0-.7.3-1.5.4-2.1 2-11.7 8.3-22.9 18-29.9C27 6.1 34.2 2.8 43 1.3l2.3-.3C55.2-.4 64.9-.4 74.7-.4z" fill="#029D8F"/><path d="M74.7-.4h53.6c9.6 0 19 .2 28.6 1.7l2 .3c11.8 2.2 22.8 8.4 30 17.9 11.7 17.3 11.4 36.7 11.4 56.8V126.4c0 21.2-.4 41.8-15 58.6-8.1 7.8-19.3 12.6-30.3 14l-2.2.3c-9.5 1-19 .9-28.5.9H73.7c-21.2.1-42.5-.4-59-15.4-15.2-16.6-15-38.1-15-59.1v-6.1-12.8-16.2-12.7-6c-.1-9.7 0-19.2 1.6-28.8 0-.7.3-1.5.4-2.1 2-11.7 8.3-22.9 18-29.9C27 6.1 34.2 2.8 43 1.3l2.3-.3C55.2-.4 64.9-.4 74.7-.4zM35.5 46.8C27.2 57.3 20.5 69.7 18 83l-.5 2.6c-3.2 23.5 2 46 16 65.3C47 167.8 66.3 180.2 88 183c4.3.3 8.5.4 12.8.4l3.2.1c7-.1 13.3-1.3 20-3.5l3.5-1.1c12.3-4.7 22-10.7 31.5-19.9l1.9-1.7c12.3-11.2 21-31.2 22.3-47.8.6-27.5-5.6-49.2-24.8-69.6-17-16.3-38.7-23.4-62-23.3-24 .7-45.2 12.4-61 30.2z" fill="#FCFDFD"/><path d="M81 38c7.4 2.3 11.9 7.2 15.6 13.8 2.4 5.6 1.8 11.6 1.7 17.6v3.8l-.1 10.2-.1 10.3L98 114c-1.8.6-1.8.6-4 1-3-2.5-4.7-4.2-6-8l-.1-5-.1-3v-3.2-6.9L87.7 78l-.1-10.4v-3.2c-.1-5.9-.3-10.1-4.6-14.4-3.6-1.4-3.6-1.4-7-2l.2 25.9.1 12.1.1 11.5v4.5l.1 6.2v3.5c.6 4 2 6.2 4.5 9.3 4.8 3.3 9 3.4 14.5 3.4h12.8c21.2.1 21.2.1 29.1 6.6l1.6 2 1.6 2c2.8 4 3.9 7 3.8 12-.7 3.7-2.7 5.4-5.4 8-5 3.2-11 2.4-16.7 2.4h-3.5c-9.8.1-17.1-2.1-24.5-8.8-1.9-2.4-2.3-4.6-2.3-7.6 4.7-.5 7-.2 11 2.5 5.8 3.5 11.4 3.1 18 2.8l3.6-.1 8.4-.2c-.4-4.9-.4-4.9-3.9-8.3-4.8-2.7-8.8-2.9-14.2-2.9l-4.9-.1-7.8-.1-7.4-.1h-2.3c-7-.2-13.3-1.9-18.8-6.5l-1.8-1.6c-6.5-8.4-6.5-17.9-6.4-28v-4.5-9.4-11.9c-.1-3.1 0-6.2 0-9.3V52.8v-3.6c.6-3.9 2-6.1 4.5-9.2 3.7-2.5 6.7-2.6 11-2z" fill="#F3F9F9"/></svg>