<svg xmlns="http://www.w3.org/2000/svg" width="100" height="100" viewBox="0 0 100 100"><path d="M61 1c2.6 2.6 3.6 5.6 5 9h2v3l2 1 1.6 1c2.3 1 2.3 1 4.3 1.3 5.4.9 5.4.9 7.5 3.5 1.4 2.7 2.4 5.3 3.1 8.4.7 2.7 2.1 3.3 4.5 4.8l3.6 1.5C98 36 98 36 100 39v6l-2 .8c-2.3 1.1-2.3 1.1-3 4.2.7 2 .7 2 1.9 4l1.1 2.2 1 1.8 1 2c-2.2 5.2-6.7 8.5-11 12 1.8 2 1.8 2 4 3l-.1 3.9c0 4.5.7 8.6 1.8 12.9C95 94 95 94 94 97c-3 2-3 2-6.2 1.9-4.3-1-7.5-2.7-11.2-4.9l-2-1.2L70 90l-2.6 3c-2.4 2.3-3.4 3-6.7 3.9-4.9-1.2-7.2-3.7-10.6-7.2L48 88c-3.3.4-5.8 1.9-8.6 3.5L36.8 93l-5.4 3.1-2.7 1.5-2.4 1.4c-2.6 1.1-4.4 1.3-7.3 1-2-1.5-2-1.5-3-4 .4-2.9.9-5.3 1.6-8l.6-2.3L20 79l1-3.6 2-7.4-12-10c.8-4.1 1.8-8 3-12h2l1-2-1.7-.7c-4-2.2-6.8-4.5-9.3-8.3l-2.6-2.4C.2 29.2.2 29.2 0 26c.4-3.3.6-4.6 3-7 2.4-.2 2.4-.2 5.3 0h3.2l6.7.3h3.2l3 .1c3.4-.5 4.5-1.7 6.6-4.4l.5-2.6c.5-2.4.5-2.4 2.2-4.1 2.8-1.6 4.1-1.4 7.3-.9 3.7.6 5.8.8 9-1.4l1-3c3.3-3.4 5.5-3.3 10-2z" fill="#E14A0F"/><path d="M8.4 18.7h4.3c5.7.1 10.9.8 16.3 2.3v5l-1-2c-1.1 0-2.3 0-3.4-.3-1.6 0-3.1 0-4.6-.2h-2.3C13 23.1 8.6 22.6 4 22c1.4 6.4 5.4 9.7 10 14l3 3 2 2 4-8c2.7.1 4.4.5 6.4 2.3C33 39.5 33 39.5 33 42h6l-1.1-2.3c-1-2.7-1-2.7-.2-5 1.7-2 2.7-2.4 5.3-2.7v-2l2.2-1 2.8-1.4 2.8-1.3c2.4-1 2.4-1 3.2-3.3h-4v-3c6.2-.4 10.4.1 16 3l2.6 1.2C73 27.5 76.9 32.7 79 38c.4 2.8.4 2.8.4 6v3c-.4 3.3-1.4 5.2-3.4 8-2.8-.3-4-.9-6-3l-1.7-2.5c-.6-.8-1.2-1.6-2-2.4-1.3-2-1.3-2-1.3-4 2-1.7 2-1.7 4-3l-1-7-.3-2.4c-.6-1.9-.6-1.9-2.3-3-5.7-1.7-11 1.2-16.2 3.4-2.2 1-2.2 1-4.2 1l-1 3-4 1c2 4 4.2 7.3 7 11v2c3.9 0 7.4 0 11-1l4.5 5.6 1.3 1.7C67 59.7 67 59.7 67 63c-9.6.1-9.6.1-12-1l-1-2.5c-.7-2.8-.7-2.8-3.3-3.6-4.7.2-7.1 4.5-10.1 7.8L38 66.3 35.6 69C33 71 33 71 27 71l-7 26 14-7.9 2.7-1.5 2.7-1.5c2.8-1.2 4.7-1.4 7.6-1v-2c4 1.3 6.9 3.2 10.2 6 2.6 2 5 4 7.8 6-1.6 1.6-3.6 1.4-6 1.4-3.7-1-6.1-4-8.8-6.8L48 88c-3.2.4-5.7 1.8-8.6 3.5L36.8 93l-5.4 3.1-2.6 1.6-2.4 1.3c-2.7 1.1-4.5 1.3-7.4 1-2-1.5-2-1.5-3-4 .4-2.9.9-5.3 1.7-8l.6-2.3c.5-2.3 1-4.5 1.7-6.7l1-3.6 2-7.4-12-10 3-12h2l1-2-1.6-.8c-4-2-7-4.5-9.4-8.2l-2.6-2.5C.2 29.1.2 29.1 0 26c.8-6 2.4-7.3 8.4-7.3z" fill="#932724"/><path d="M57 3c2.9 2.7 4.5 5.3 6 9l-1 3 3.2 1.4 4.2 1.8 2.1.8c5.2 2.4 5.2 2.4 6.8 5.7L79 27l3 1 1.5 5.8c.5 2.2 1.2 3.9 2.1 5.9 2.7 6.9 2.4 15.2-.1 22.1L84 65h-3l-1-6h-4c-.7-1.7-.7-1.7-1-4l1.4-2.3C79.1 48 78.7 43.2 78 38c-1-2.4-2.2-4.2-3.7-6.3C73 30 73 30 72 27.8L71 26c-1.9-.6-1.9-.6-4-1l-2.2-1.5c-3.1-1.7-5.6-2.2-9.1-2.7l-3.3-.5L50 20v3h4c-1.1 3.3-1.5 3.6-4.4 5.2l-1.8 1C46 30 46 30 43 30v2l-2 .7c-2.2 1.1-2.2 1.1-2.8 3.7-.4 2.7-.4 2.7.8 5.6l-4 2v-2h-2c-5-5.5-5-5.5-5-8l-5-1-.8 2.8C21 38.9 20.3 39.9 18 42l-7-7.2-2-2-2-2L5.3 29c-1.6-2.5-1.5-4.1-1.3-7l9.7.4 2.8.2 2.7.1 2.5.1c2.2.2 4.2.6 6.3 1.2l-.8-2.2L27 19l4-4 .5-2.6c.5-2.4.5-2.4 2.2-4.3 3.1-1.5 5-.9 8.3-.1l1 4c5.5 0 5.5 0 9.9-2.8L57 3z" fill="#9E4F5E"/><path d="M51 29l2 1-8 6c1.1 3.9 2 6.3 5 9v2l2.3-1.4c2.3-1.4 4.1-2 6.7-2.6l1.2 2c2.7 4.6 5.4 8.9 8.8 13v2h2l1 4c-4 2.7-7.2 2.5-12 2-6.9-1.9-6.9-1.9-9-4l-2 1v-3c-5.7 5.5-11.6 11.4-16 18 .3 3.1.3 3.1 1 6 4.8-1.4 6.3-3.4 8.8-7.6l1.8-3.1L46 71c2.8.5 5.3 1.1 8 2l7.3.3h3.9c4-.3 6.3-1.4 9.8-3.3h3c1.9 2.5 1.9 2.5 4 5.8 2.7 4.4 2.7 4.4 6.2 8.2 2.2 2.4 2.4 3.6 2.6 6.8l.2 2.4V95c-7.1-.2-11.5-3.7-17-8 1.2-2.5 2-4 4-6-.3-2.6-.3-2.6-1-5-2.7-1-3.9-1-6.7 0-5.5 1.7-10.7 1.4-16.3 0-3.5-.4-3.5-.4-7 0-2.1 1.6-2.1 1.6-3 4 .4 2.1.4 2.1 1 4l-11.4 6.5-3.2 1.9-3.2 1.8-2.9 1.6C22 97 22 97 20 97c.7-5.8 2-11.3 3.6-17l.7-2.6L26 71c2-.5 4-1 6-1.3 2.7-.9 4-2.4 6-4.4l2.1-2.3c2-2 2-2 4.1-5 1.8-2 1.8-2 4.3-3 2.5 0 2.5 0 4.8 1.8C55 59 55 59 55 62l12 1c-2.7-5-5.7-9.5-9-14l-1.8.4c-2.5.4-4.7.6-7.2.6-4-3-6.5-6.8-9-11v-3l1.8-.8c2.2-1.1 2.2-1.1 3.7-2.7 1.7-1.7 3.2-2.6 5.5-3.5z" fill="#FAE007"/><path d="M8.4 18.7h4.3c5.7.1 10.9.8 16.3 2.3v5l-1-2c-1.1 0-2.3 0-3.4-.3-1.6 0-3.1 0-4.6-.2h-2.3C13 23.1 8.6 22.6 4 22c1.4 6.4 5.4 9.7 10 14l3 3 2 2 4-8c2.7.1 4.4.5 6.5 2.3C30.9 37 30.9 37 33 40l-1 3-4-1v2h-3v2h-3l3 2-1 2v4l4 2-1 4h3c1.9 1.7 1.9 1.7 3 4-.8 2.7-.8 2.7-2 5h-4l-.5 2.5c-1.8 8.7-4 17-6.5 25.5l2-1c2.9-1.8 5.8-3.4 8.7-5l3-1.8 3-1.6 2.7-1.5c2.8-1.2 4.7-1.4 7.6-1v-2c4 1.3 6.9 3.2 10.2 6 2.6 2 5 4 7.8 6-1.6 1.6-3.6 1.4-6 1.4-3.7-1-6.1-4-8.8-6.8L48 88c-3.2.4-5.7 1.8-8.6 3.5L36.8 93l-5.4 3.1-2.6 1.6-2.4 1.3c-2.7 1.1-4.5 1.3-7.4 1-2-1.5-2-1.5-3-4 .4-2.9.9-5.3 1.7-8l.6-2.3c.5-2.3 1-4.5 1.7-6.7l1-3.6 2-7.4-12-10 3-12h2l1-2-1.6-.8c-4-2-7-4.5-9.4-8.2l-2.6-2.5C.2 29.1.2 29.1 0 26c.8-6 2.4-7.3 8.4-7.3z" fill="#27100C"/><path d="M61 1c2.6 2.6 3.6 5.6 5 9h2v3l2 1 1.6 1c2.3 1 2.3 1 4.3 1.3 5.4.9 5.4.9 7.5 3.5 1.4 2.7 2.4 5.3 3.1 8.4.7 2.7 2.1 3.3 4.5 4.8l3.6 1.5C98 36 98 36 100 39v6l-2 .8c-2.3 1.1-2.3 1.1-3 4.2.7 2 .7 2 1.9 4l1.1 2.2 1 1.8 1 2c-2 4-4.4 6.5-7.7 9.3l-2.4 2.1L88 73c-2.6-2.2-2.6-2.2-5-5 0-1.9 0-1.9 1-4 3.4-9.4 3.2-18.8-1-27.8-1-2.2-1-2.2-1.5-5.6-.6-3.3-2.1-4.4-4.5-6.6v-2l-1.6-.3c-3.1-.9-5.8-2.3-8.6-3.7l-3.3-1.7L61 15l2-1-5-10c-2 2-3.8 3.7-5.3 6.3C51 12 51 12 49 12.3l-6-.3-1-3 1.7-.6 2.3-.7 2.2-.7c2.2-1 2.2-1 2.8-4 3.3-3.4 5.5-3.3 10-2z" fill="#60221C"/><path d="M57 3c2.9 2.7 4.5 5.3 6 9l-1 3 3.2 1.4 4.2 1.8 2.1.8c5.2 2.4 5.2 2.4 6.8 5.7L79 27l3 1 1.5 5.8c.5 2.2 1.2 3.9 2.1 5.9 2.7 6.9 2.4 15.2-.1 22.1L84 65h-3l-1-6h-4c-.7-1.7-.7-1.7-1-4l1.4-2.3C79.1 48 78.7 43.2 78 38c-1-2.4-2.2-4.2-3.7-6.3C73 30 73 30 72 27.8L71 26c-1.9-.6-1.9-.6-4-1l-2.4-1.4C55 17.8 44.5 19.7 34 22l4-10h2.6c6.8.1 6.8.1 12.6-2.8 1.5-2 2.7-4 3.8-6.2z" fill="#F8B52C"/><path d="M77 75l2 2c-.2 3-.6 4.6-2.6 6.8L75 85c1.2 3.7 2.4 4.2 5.8 6.1l2.6 1.6C86 94 88.2 94.6 91 95l-.4-1.8-.6-2.4-.6-2.4C89 86 89 86 89 82h2v-5l2 1c.4 1.8.4 1.8.6 4.1.2 2.9.6 5.9 1 8.8C95 94 95 94 94 97c-3 2-3 2-6.2 1.9-4.3-1-7.5-2.7-11.2-4.9l-2-1.2L70 90l-1.6 2c-2.4 2-2.4 2-5.3 2-3.7-1.2-5.9-3-8.9-5.5-3.4-3.1-3.4-3.1-7.2-5.5v2l-4-1c.5-3.8 1.1-6.4 4-9 3.2-.3 5.9-.3 9 .5 7 1.7 15-3.1 21-.5z" fill="#EE0D08"/><path d="M49 59l2 1h1l2 3c5.7 2.6 12 3 18 1l3 3v2l2 1c-7.4 4.8-14.4 4.8-23 4-3-.7-5.3-1.7-8-3l-.6 2c-1.9 4-4.2 7.9-7.4 11h-4c-2-3-2-3-1.9-5.4 1-3 2.2-4.3 4.5-6.4 3.6-3.4 6.9-6.9 10.1-10.6L49 59z" fill="#DA450C"/><path d="M39 41c2 1 2 1 2.6 2.7.6 2.4 1 4.9 1.4 7.3l.5 2.5c.5 4.4.1 6.7-2.5 10.4-2.6 2.8-4.8 5.1-8 7.1-3.3-.2-3.3-.2-6-1l2-.7c2.1-1.1 2.1-1.1 2.9-3.2.1-2.6-.6-3.9-1.9-6.1h-3l-.4-2.4L26 55l-2-1c-.7-2.5-.7-2.5-1-5l1-1-3-3 4 1v-2h3v-2h9l2-1z" fill="#54282B"/><path d="M8.4 18.7h4.3c5.7.1 10.9.8 16.3 2.3v5l-1-2c-1.1 0-2.3 0-3.4-.3-1.6 0-3.1 0-4.6-.2h-2.3C13 23.1 8.6 22.6 4 22c1.4 6.4 5.4 9.7 10 14l3 3 2 2 4-8c2.7.1 4.4.5 6.5 2.3C30.9 37 30.9 37 33 40l-1 3-4-1v2h-3v2h-3l3 2-1 2v7c-3-2-3-2-3.6-5l-.4-3-3-1v-4l-1.6-.8c-4-2-7-4.5-9.4-8.2l-2.6-2.5C.2 29.1.2 29.1 0 26c.8-6 2.4-7.3 8.4-7.3z" fill="#2A1511"/><path d="M82 31l4 4v2l1.9.1 2.5.3 2.4.2C95 38 95 38 97 40l-4 6 1.5 1.3C96 49 96 49 96 52l3 6 1 2c-2 4-4.4 6.5-7.7 9.3l-2.4 2.1L88 73c-2.6-2.2-2.6-2.2-5-5 0-1.9 0-1.9 1-4 3-8.4 3.4-17.3 0-25.6L82.9 36c-.9-2-.9-2-.9-5z" fill="#731B0A"/><path d="M51 29l2 1-8 6c1.1 3.9 2 6.3 5 9v2l2.3-1.4c2.3-1.4 4.1-2 6.7-2.6l1.2 2c2.7 4.6 5.4 8.9 8.8 13v2h2l1 4c-4 2.7-7.2 2.5-12 2-6.9-1.9-6.9-1.9-9-4l-2 1v-3c-2.4 2.3-4.6 4.5-6.7 7.1-1.7 2.2-3.3 4.1-5.3 5.9-3.4 0-3.4 0-6-1l2.2-2.1c3.6-3.7 6.9-7.6 10.3-11.6 2.6-2.4 3.9-3.2 7.5-3.3 2.3 1.8 2.3 1.8 4 4v3l12 1c-2.7-5-5.7-9.5-9-14l-1.8.4c-2.5.4-4.7.6-7.2.6-4-3-6.5-6.8-9-11v-3l1.8-.8c2.2-1.1 2.2-1.1 3.7-2.7 1.7-1.7 3.2-2.6 5.5-3.5z" fill="#FCE505"/><path d="M4 22l9.8.4 2.8.2 2.7.1 2.5.1C24 23 24 23 27 24c-1.9 6.5-4.5 12.2-8 18-4-3-7.1-6.3-10.4-10.1C7 30 7 30 5.3 28.6 3.5 26.4 3.8 24.7 4 22z" fill="#FCF208"/><path d="M25 71h1c-.6 6-1.9 11.7-3.6 17.5l-.7 2.5-1.7 6 2-1.1 8.7-4.9 3-1.7 3-1.7 2.7-1.5C42.2 85 44 84.8 47 85v-2c4 1.4 6.9 3.3 10.1 6 2.6 2.1 5.1 4.1 7.9 6-1.7 1.7-3.6 1.6-5.9 1.6-3.8-1.1-6.3-4.1-9-6.9L48 88c-3.3.4-5.8 1.9-8.6 3.5L36.8 93l-5.4 3.1-2.7 1.5-2.4 1.4c-2.6 1.1-4.4 1.3-7.3 1-2-2-3-3.1-3-6h2l.8-3.8C20 84.7 21.5 79.4 23 74h2v-3z" fill="#6B2005"/><path d="M66 27c2 1.3 2 1.3 3 3 0 1.8 0 1.8-1 4-2.6 2.1-2.6 2.1-5.8 4.2L59 40.3C56 42 56 42 52 43l-6-7c3.6-7.3 12-11.8 20-9z" fill="#D29260"/><path d="M57 3c2.9 2.7 4.5 5.3 6 9l-1 3 3.2 1.4 4.2 1.8 2.1.8c5.2 2.4 5.2 2.4 6.8 5.7L79 27l3 1 1 3-2 2-1.2-1.5c-8-9.9-17.5-14-30-15.8-5.6-.4-10 1.8-14.8 4.3 1.9-5.7 1.9-5.7 3-8l6.2-.1c4.9-.2 4.9-.2 9-2.7 1.4-2 2.7-4 3.8-6.2z" fill="#F33111"/><path d="M77 75l2 2c-.2 4.4-2 7-5 10h-3v-2l-1.8.5C67 86 67 86 63 86l-1-3 1-2-1.8-.2-2.3-.2-2.5-.3C54 80 54 80 50.7 79.2c-2.9-.5-2.9-.5-5.1 1.8L44 83c0-4 0-4 1-6.2 2-1.8 2-1.8 5.4-2.1 3.6.3 3.6.3 5.6.8 7 1.7 15-3.1 21-.5z" fill="#F54213"/><path d="M69 53c3.2 3 6.1 6.2 9 9.6 2.8 3.2 5.7 5.8 9 8.4v2l6 2-2 7h-2l-1 3v-2l-3-1-3.9-5.7c-2.1-3.4-4-6.3-6.8-9C72 65 72 65 71.9 62l.1-3c-1.4-2.2-1.4-2.2-3-4v-2z" fill="#8E3B15"/><path d="M55 48c1.8.1 1.8.1 4 1 2.1 2.4 2.1 2.4 4.3 5.4l2.1 2.9C67 60 67 60 67 63c-9.7.2-9.7.2-12-1l-1-2.5c-.7-2.7-.7-2.7-3.3-3.5-3.4 0-5 1-7.7 3v-4l4-2v-4h3.4c3.4.4 3.4.4 4.6-1z" fill="#C5261E"/><path d="M81 35c4.4 4 5.8 6 6.2 12 .1 6.7-.3 11.8-3.2 18h-3l-1-6h-2l.4-1.7C79.9 51 80.1 45 80 38.6c0-2.6 0-2.6 1-3.6z" fill="#F3842E"/><path d="M27 70c3.2.6 6 1.8 9 3l-2 2.6c-2 3.4-2.7 5.5-3 9.4l1 2-3.9 3-2.1 1.6C24 93 24 93 22 94c-.5-5.6.5-10.5 2-16l.5-2c1.4-4.9 1.4-4.9 2.5-6z" fill="#FDFC2D"/><path d="M61 1c2.6 2.6 3.6 5.6 5 9h2v3l2 1h-4v2l2.4.3C71 17 71 17 73 20c-3-.6-5.5-1.7-8.2-3l-2.2-1.2L61 15l2-1-5-10c-2 2-3.8 3.7-5.3 6.3C51 12 51 12 49 12.3l-6-.3-1-3 1.7-.6 2.3-.7 2.2-.7c2.2-1 2.2-1 2.8-4 3.3-3.4 5.5-3.3 10-2z" fill="#502111"/><path d="M23 33c2.7.2 4.5.5 6.5 2.3 1.4 1.6 1.4 1.6 3.5 4.7l-1 3-4-1v2h-3v2h-3l3 2-1 2v7c-3-2-3-2-3.7-5.1L20 49l-3-1c1.6-5.2 3.4-10.2 6-15z" fill="#2F2226"/><path d="M52 63l3.4 1c5.6 1.4 11.1 1.8 16.6 0l3 3v2l2 1c-3 .8-5.5 1.1-8.6 1.1h-8c-4.3 0-8.3-.1-12.4-1.1l4-7z" fill="#C7662D"/><path d="M91 77l2 1c.4 1.8.4 1.8.6 4.1.2 2.9.6 5.9 1 8.8C95 94 95 94 94 97c-3 2-3 2-6.3 1.9-4-.9-7.2-2.5-10.7-4.8L75.3 93c-1.7-1-1.7-1-4.3-3v-3c5 .7 8.3 2.9 12.5 5.6 2.5 1.4 4.6 2 7.5 2.4l-.4-1.8-.6-2.4-.6-2.4C89 86 89 86 89 82h2v-5z" fill="#3E1308"/><path d="M14 52l4 2v2h3l.8 2.8c1.2 3.3 2.5 4.9 5.2 7.2l-1.3 3.3c-1.9 5-3.4 10.1-4.9 15.2l-.8 2.8-2 6.7c-1.2-3.5-.8-5.7.2-9.2l.8-3 1-3 .8-3.2L23 68 11 58l1-4h2v-2z" fill="#110B08"/><path d="M42 77c1.7 2.6 2.4 4 3 7l-11.4 6.5-3.2 1.9-3.2 1.8-2.9 1.6C22 97 22 97 20 97l1-7 2 3 8-7-1-3 2-4 2 5c3.4-1 4.8-1.6 6.8-4.6L42 77z" fill="#FAD906"/><path d="M46 20l4 2 4 1c-1.1 3.3-1.5 3.6-4.4 5.2l-1.8 1C46 30 46 30 43 30v2l-2 .7c-2.2 1.1-2.2 1.1-2.8 3.8-.4 2.5-.4 2.5.8 4.5l-4-1-1-2-4-2 1-3 3 1 2-4h5l2-6-2-1h3v-2l2-1z" fill="#894057"/><path d="M70 36h2l-.1 2.9c-.2 3.2-.2 3.2 2.1 5.1 2.6.2 2.6.2 5 0 0 1.5-.2 3-.3 4.4l-.2 2.4C78 53 78 53 75 55c-3.6-1.2-4.4-2.5-6.7-5.4l-1.9-2.5C65 45 65 45 65 43l2-1.4c2.3-1.8 2.6-2.7 3-5.6z" fill="#B1231D"/><path d="M87 37c7.8.8 7.8.8 10 3l-4 6 3 3h-2l1 6-3 1c-1.2 2-1.2 2-2 4h-2v-3.5-4.6-2.3c.1-4.3-.1-8.4-1-12.6z" fill="#961910"/><path d="M53 56c0 3 0 3-2 5.2L49 63v-3c-2.4 2.3-4.6 4.5-6.7 7.1-1.7 2.2-3.3 4.1-5.3 5.9-3.4 0-3.4 0-6-1l2.2-2.1c3.7-3.7 7.1-7.7 10.6-11.6 3.4-3.5 4.6-3.3 9.2-2.3z" fill="#FBE30C"/><path d="M76 78l-2 9h-3v-2l-1.8.5C67 86 67 86 63 86l-1-3 1-2-1.9-.1-2.5-.3-2.4-.2C54 80 54 80 52 78h11.3l2.5.1H68c7.1-.4 7.1-.4 8-.1z" fill="#F61D0E"/><path d="M39 41l2 1v3l-4 2 1 2c-1.2 1.6-1.2 1.6-3 3-2.7-.3-2.7-.3-5-1l1-3c-2-.2-2-.2-4 1l-2 1-2-1 1-1-3-3 4 1v-2h3v-2h9l2-1z" fill="#5F4357"/><path d="M47 83c4 1.4 6.9 3.3 10.1 6 2.6 2.1 5.1 4.1 7.9 6-1.7 1.7-3.6 1.6-5.9 1.6-3.8-1.1-6.3-4.1-9-6.9-1.9-2-1.9-2-4.2-1.5L44 89l-2.8 1-2.2 1v-2l4-1v-3h4v-2z" fill="#5D130A"/><path d="M43 30h4v2h-2l-1 3c-2 .7-2 .7-4 1 1.5 3.2 2.9 5.8 5.1 8.5 2.2 2.9 2.6 5 2.9 8.5l-5 2-.6-2.7-.7-3.6-.7-3.6c-1-3-1.6-4.2-4-6.1.7-3 .7-3 2-6 2.1-.9 2.1-.9 4-1v-2z" fill="#BB4337"/><path d="M42 8l1 5-5-1-.8 2C36 16 36 16 33 17v3h-2l1 4h-3l-2-5 2-1.7c2.2-2.1 2.2-2.1 2.5-4.9.5-2.4.5-2.4 2.2-4.3 3.1-1.5 5-.9 8.3-.1z" fill="#475E8A"/><path d="M62 80l2 1-1 5h4l1-2 3 1c-.3 3-.9 4.8-2.7 7.4C66 94 66 94 62.8 93.9L60 93l-1-2 3-1c-1-3.2-1.6-3.7-4-5.6L55 82v-1h5l1 1 1-2z" fill="#EC0E08"/><path d="M71 23c3.6 1.5 5.6 3.5 8.1 6.4l2.1 2.3c1.6 2.1 2.8 3.8 3.8 6.3l-1 3-3-5 .1 2.5C81.3 46 80.6 52 78 59h-2c-.7-1.7-.7-1.7-1-4l1.5-2.3c1.8-3.2 1.8-5 1.8-8.7l-.1-3.1c-.2-3-.6-5.9-1.2-8.9v-2c-1.3-1.8-1.3-1.8-3-3.6l-1.7-1.9L71 23z" fill="#F3B41A"/><path d="M73 30c3.8 3.6 6 5.9 6.1 11.3L79 44c-2.3.7-2.3.7-5 1-1.9-1-1.9-1-3-3 .3-3.2.3-3.2 1-6l-4 1v-4l3 1 2-4z" fill="#992119"/><path d="M33 54l5 1-1 5 6-1c-2.2 5-5.7 8.8-10 12-3.5 0-3.5 0-6-1l1.9-.6c3.1-2 3.3-3.8 4.1-7.4v-8z" fill="#6D363F"/><path d="M4 22l20 1v1l-5.1.6-2.9.3c-3.2.1-6-.3-9-.9 6.1 7.8 6.1 7.8 13 15l-1 3c-4-3-7.1-6.3-10.4-10.1C7 30 7 30 5.3 28.6 4 27 4 27 4 22z" fill="#F0C311"/><path d="M91.3 62l2.4.3 2.5.4 1.8.2c-3.3 4.2-6.1 7.7-11 10-4-4.7-4-4.7-4-7l3-1 1.4-1.5C89 62 89 62 91.3 62z" fill="#230903"/><path d="M52 17c9.7.8 16.3 1.7 23 9.2l4 4.8-2 1-1 2c-5-5.7-5-5.7-5-8l-1.7-.3C67 25 67 25 64.6 23.6 61.8 21.9 59.1 21 56 20v-2l-4-1z" fill="#F39A53"/><path d="M82.4 81.7c3.6.3 3.6.3 5.5 1.5 1.4 2.4 1.3 4 1.1 6.8-2.2.7-2.2.7-5 1-5.7-3-5.7-3-7-7 2-2 2-2 5.4-2.3z" fill="#FDFA05"/><path d="M55 48c1.8.1 1.8.1 4 1 2.1 2.4 2.1 2.4 4.3 5.4l2.1 2.9C67 60 67 60 67 63c-8.6.3-8.6.3-12-2h2v-2h5l-2-2.9C58 53 58 53 58 51h-8l2-1c2-.8 2-.8 3-2z" fill="#FA4E18"/><path d="M51 29l2 1-8 6c1.3 4.5 2.9 7.5 6 11l-1 2h-3c-1.8-2-1.8-2-3.7-4.8l-1.9-2.7C40 39 40 39 40 36l1.8-.8c2.2-1.1 2.2-1.1 3.7-2.7 1.7-1.7 3.2-2.6 5.5-3.5z" fill="#EC9C0C"/><path d="M47 70h26l1 2c-6.7 3.2-15.4 3.2-22.5 1.3-1.9-.8-1.9-.8-4.5-2.3v-1z" fill="#F37C23"/><path d="M38 45h4c1 4.8 1 9.2 1 14l-4 2-3-1 1-8 3-1-1-4h-3l2-2z" fill="#562826"/><path d="M49 59l2 1C40.7 77.7 40.7 77.7 34.7 79.8c-.8.2-.8.2-1.7.2 1.5-2.6 2.8-4.8 5-7 2.2-2 2.2-2 3.4-5 1.8-3.3 3.8-5.4 6.6-8l1-1z" fill="#C08746"/><path d="M82 31c4 3.3 6 7 7 12 1 14.3 1 14.3-2 19h-2l.5-2.1c1.5-8.5 1.1-16.1-2.6-23.9-.9-2-.9-2-.9-5z" fill="#6B2512"/><path d="M57 3c3 2.5 4.4 5.5 6 9v2l-4.4-.4-2.4-.3C54 13 54 13 52 12c1.2-3.5 2.7-6.1 5-9z" fill="#F4E735"/><path d="M25 34h3c2.8 2.8 2.8 2.8 5 6l-1 3-4-1v2h-7l2-3-1-2h2l1-5z" fill="#2E2A36"/><path d="M36 15c0 4.5-2.1 8-4 12l-1.6 3.5C29 33 29 33 26 34l-2-1 3-9h5l-1-4h2v-3l3-2z" fill="#656F9D"/><path d="M56 43h3c1.6 2 1.6 2 3.2 4.8l1.6 2.7C65 53 65 53 65 56c-4-1.3-4.8-3.5-7-7l-9 1 7-7z" fill="#FBCC05"/><path d="M25 71h1c-.6 6-1.9 11.7-3.6 17.5l-.7 2.5-1.7 6-4-1v-2h2l.8-3.8C20 84.7 21.5 79.4 23 74h2v-3z" fill="#62220C"/><path d="M79 68l5 5 1.7 1.7c1.6 1.7 3 3.3 4.3 5.3-.1 3-.1 3-1 5l-1-2-3-1c-1.9-2.1-1.9-2.1-3.7-4.8l-2-2.7C78 72 78 72 78.3 69.7L79 68z" fill="#C65521"/><path d="M62 44c4.7 4.7 7.5 7.9 10 14l1 2-2 3v-3h-2c-1.7-2-1.7-2-3.6-4.8l-1.8-2.7C62 50 62 50 61 47l1-3z" fill="#C75112"/><path d="M58 3h3l4 7h3v3l2 1h-4v2l2.4.3C71 17 71 17 73 20c-3-.6-5.5-1.7-8.2-3l-2.2-1.2L61 15l2-1-5-11z" fill="#59291B"/><path d="M24 79h1v5l3 .4 3 .6 1 2-3.9 3-2.1 1.6C24 93 24 93 22 94c-.2-5.5.3-9.8 2-15z" fill="#FDFC0A"/><path d="M64 45c3.8 1.5 5.7 3.7 8 7v2h3l1 5h4l3 9c-4.3-3.2-7.4-6.7-10.6-11L71 55.2c-2.6-3.2-5-6.6-7-10.2z" fill="#C66627"/><path d="M93.4 33.7c3.7 1.4 5 1.8 6.6 5.3.2 3.3.2 3.3 0 6-2.4 1.4-3.6 2-6.3 1.7L92 46l2-2.8c2.2-3 2.2-3 2-6.2-4-.7-4-.7-8-1v-2c2-1 2-1 5.4-.3z" fill="#2C110A"/><path d="M5 20l21 1v2h3l-1 3v-2l-3.5-.2-4.6-.2-2.3-.2c-4.3-.2-8.4-.6-12.6-1.4v-2z" fill="#631B05"/><path d="M47 49l11 2-4 3v2l-2.7-.2C47.7 56 46 57 43 59v-4l4-2v-4z" fill="#E5341C"/><path d="M68 18c8.6 3.2 8.6 3.2 10.4 6.7L79 27l3 1 1 3-2 2-1.3-1.6C75.8 26.8 72 23.3 67 20l1-2z" fill="#B31F07"/><path d="M29 60l4 4-2 5h-4v2h-2l-1 3c.5-5.7 2-9.2 5-14z" fill="#320F06"/><path d="M32 29l3 2-1 4-1-2h-2v3l4 2v2l4 2-4 2v-2h-2c-5-5.1-5-5.1-5-8.3 1-1.7 1-1.7 4-2.7v-2z" fill="#7A3E52"/><path d="M71 87c5 .7 8.3 2.9 12.5 5.6 2.5 1.4 4.6 2 7.5 2.4l-1 2c-4.7-.4-6.8-.8-10-4-2.5-1.2-2.5-1.2-5.2-2.2l-2.8-1-2-.8 1-2z" fill="#6C1D02"/><path d="M39 41l2 1v3c-5.7 2.7-10.1 1.5-16 0l3-1v-2h9l2-1z" fill="#553440"/><path d="M50 20c6.2-.4 10.4.2 16 3l-1 2-3-.4L50 23v-3z" fill="#9B3027"/><path d="M52 86l1.6 1.2C57.2 90 60.5 92.6 65 94l-1 2c-3.2.3-3.2.3-7 0-3.3-3-4.5-5.6-5-10z" fill="#61110A"/><path d="M47 79c2.4 0 2.4 0 5 1 1.7 3 1.7 3 3 6l2 1v2c-3.6-1.7-6.7-3.8-10-6v2l-4-1h2l.4-2c.6-2 .6-2 1.6-3z" fill="#CA0E06"/><path d="M35 30h3c1.1 3.4.7 5.6 0 9l1 2-4-1-1-2-4-2 1-3 3 1 1-4z" fill="#733949"/><path d="M94 50c2.1 2.8 3.6 5 5 8l1 2-1 3-7-1v-2h3l-1-10z" fill="#47140E"/><path d="M50.8 55.3l2.3.7c0 3 0 3-2 5.2L48.8 63v-3l-4 4c.4-1.7.8-3.3 1-5l-2-1c2.5-2.3 3.4-3 6.8-2.7z" fill="#F8B113"/><path d="M72 89l9 4v2l4.3.5 2.4.3c2.4.2 2.4.2 5.3.2l1-2v3c-3.1 2-4.2 2.4-7.7 1.8C81.1 97 76.4 94.1 72 91v-2z" fill="#160704"/><path d="M45 35c5.8 4.2 5.8 4.2 6.9 8.3L52 46c-4.2-1.5-5.9-4.2-8-8l1-3z" fill="#682E10"/><path d="M4 27c5.2 4.3 9.7 8.8 14 14l-3 1-1.2-1.4-1.6-1.9-1.6-1.9-3.2-3.4C5.5 31.5 4.9 29.5 4 27z" fill="#721F02"/><path d="M54 13l-1.8.2-2.5.2-2.3.3c-2.2.3-4.3.7-6.4 1.3v2l-6 3c1.9-5.7 1.9-5.7 3-8 2.8-.5 2.8-.5 6.4-.8l3.5-.2c3.1 0 3.1 0 6.1 2z" fill="#A53E37"/><path d="M14 46h3l1 2h3v6l-3-2c-3.2.8-3.2.8-6 2l2-8z" fill="#241C1C"/><path d="M42 77c1.7 2.6 2.4 4 3 7-6.8 4-6.8 4-9 4 1.5-4.1 3.5-7.4 6-11z" fill="#F6C106"/><path d="M52 58l3 1v3l12 1-1 2c-5.5 1.8-9 .2-14-2v-5z" fill="#FCF20C"/><path d="M76 35c1.5 1.1 1.5 1.1 3 3 .2 3.2.2 3.2 0 6l-5-1-1-6h3v-2z" fill="#841B09"/><path d="M62 80l2 1-1 3 1.5 1.4C66 87 66 87 66 89c-3.4-.6-5.2-1.7-7.8-4l-1.8-1.6L55 82v-1h5l1 1 1-2z" fill="#D30F09"/><path d="M51 64h2v2l2.4.9C58 68 58 68 60 70H48l3-6z" fill="#B16333"/><path d="M52 63l3.4 1c4.8 1.2 9.6 1.6 14.6 2v2c-6 .2-11.4.3-17-2l-1-3z" fill="#F58C3B"/><path d="M43 44c4 3 4 3 4.8 6.2L48 53l-5 2V44z" fill="#B22A23"/><path d="M81 35c2 2 2 2 2 4l-.7 7.4c-.1.9-.1 1.8-.3 2.6l-.2 2.6-.2 2.4c-.7 2.4-1.6 3.4-3.6 5l.4-1.7C79.9 51 80.1 45 80 38.6c0-2.6 0-2.6 1-3.6z" fill="#F99741"/><path d="M36 91l2 1-6.7 4-1.9 1.2c-3.6 2.1-6.2 3.3-10.4 2.8l-2-4 3.3.9c5.4.7 8.9-1.9 13.4-4.6L36 91z" fill="#130503"/><path d="M43 59c-1.5 3.5-3.4 5.6-6.1 8.3l-2.2 2.1L33 71l-3-1 3-3h2l.8-2.3c1.8-4 2.8-5.7 7.2-5.7z" fill="#C94D1D"/><path d="M69 42v3h2l3 9h-2c-1.7-1.9-1.7-1.9-3.6-4.4l-1.9-2.4C65 45 65 45 65 43c2-1 2-1 4-1z" fill="#8A2115"/><path d="M42 8v1l-2.4.2-2.6.8-2 5c-2.6 2.3-2.6 2.3-5 4 1.3-8.1 1.3-8.1 3.7-11.1 3.1-1.2 5.2-.7 8.3.1z" fill="#362D32"/><path d="M40 69c0 3.6-.7 4.1-3 6.7l-1.7 1.9L34 79l5 4-5 1c-2-3-2-3-2-5.2 1.6-4.2 4.7-6.8 8-9.8z" fill="#DE701B"/><path d="M86 46h1c.4 7 .1 12.6-3 19l-2 1c.7-4.5 1.6-9 2.6-13.4l.8-3.7.6-2.9z" fill="#F7DF0F"/><path d="M89 37l8 2-3 5-4-1-1-6z" fill="#F4BF09"/><path d="M52 15c-3 2-5.5 2.6-9 3.4-2.6.8-4.7 2.1-7 3.6h-2v-2c6.2-3.6 10.8-5.7 18-5z" fill="#FACD0D"/><path d="M43 59h3c-.4 2.7-.7 4.6-2.3 6.8C42 67 42 67 38 67c1.4-3 2.8-5.6 5-8z" fill="#FCF31E"/><path d="M80 41h1c.4 6.6-.9 11.8-3 18h-2c-.7-1.7-.7-1.7-1-4l3-5c.8-3 1.4-6 2-9z" fill="#FAEC13"/><path d="M67 24c2-.4 2-.4 5 0 2.6 2.1 4.8 4.5 7 7l-2 1-1 2c-5-5.7-5-5.7-5-8l-4-1v-1z" fill="#EF8F4C"/><path d="M45 23h9l-1 3c-3.6 1.7-3.6 1.7-7 3v-3l-1-3z" fill="#7C3241"/><path d="M66 15c5.5.6 10.6 1.6 16 3l1 5-.6-2c-1.3-2.3-1.3-2.3-4.5-2.7-.9-.1-1.9-.3-2.9-.3v3c-2 0-2 0-4-1.9L69 17l-3-2z" fill="#1B0B09"/><path d="M82.4 81.7c3.6.3 3.6.3 5.5 1.5 1.4 2.4 1.3 4 1.1 6.8l-2 1-1-7-6-1v2l-3-1c2-2 2-2 5.4-2.3z" fill="#FCE502"/><path d="M15 24h12l-1 4-5-.9-2.7-.5L16 26l-1-2z" fill="#FDFC92"/><path d="M78 76l1 5-4 3v-6l-6 1v-2c3.2-1 5.7-1 9-1z" fill="#F93C0E"/><path d="M25 71h1c-1 9-1 9-3 13l-2 1c.9-7.6.9-7.6 2-11h2v-3z" fill="#712303"/><path d="M49 59l2 1c-2.6 4.4-5.1 8.5-9 12l1-4 .2-2c1.2-3 3.4-4.8 5.8-7z" fill="#E3A463"/><path d="M38 45h3l1 10-4 1-1-4 3-1-1-4h-3l2-2z" fill="#3C1D1F"/><path d="M68 37l2 1c-.8 2-.8 2-2 4l-3 1v2c-3.9-1.7-3.9-1.7-5-4l2.3-.4C65 40 65 40 68 39v-2z" fill="#E45E29"/><path d="M56 26l-1 3c-1.8.7-1.8.7-4 1.2l-2.3.5-1.7.3v-3c5.6-3.1 5.6-3.1 9-2z" fill="#9D2B2F"/><path d="M54 23c4.3.5 8 1.2 12 3-3.3 1.1-6.5 1.5-10 2l-2-5z" fill="#832625"/><path d="M51 8v4h-8l-1-3c5.6-2.1 5.6-2.1 9-1z" fill="#43363C"/><path d="M21 47l4 1-1 2v7l-3-2c-.4-2.7-.1-5.2 0-8z" fill="#3B1F21"/><path d="M55 0c5.8.8 5.8.8 8 3 2.2 4.5 2.2 4.5 1 8-3-5.7-3-5.7-3-8l-7-1 1-2z" fill="#180B09"/><path d="M70 85l1 3c-2.3 3.2-2.3 3.2-5 6h-2c.5-4.2 3-6.2 6-9z" fill="#C70A06"/><path d="M64 80h3c1.1 3.8 1.1 3.8 0 6h-4l-1-3 2-3z" fill="#E81C12"/><path d="M56 7l2 1 1 5-7-1v-2l4-3z" fill="#F9EF52"/><path d="M71 64l4 3v2l2 1-4 1-4-5 2-2z" fill="#D35D06"/><path d="M35 61l3 1-3 5h-2l-1 3h-5l2-.7c2.2-1.1 2.2-1.1 2.6-3.3l.4-2 3-3z" fill="#7F311C"/><path d="M64 45c3.8 1.5 5.7 3.7 8 7v2h3l-1 2c-4.8-2.3-7.3-5.5-10-10v-1z" fill="#A8592B"/><path d="M29 60l4 4-2 5h-4l-1 2v-3h4c-.5-2.2-1-4-2-6l1-2z" fill="#471A0A"/><path d="M34 22h10l-2 4-8-1v-3z" fill="#9A4A5F"/><path d="M75 18l6 1 1 4-8-1 1-4z" fill="#4F1B16"/><path d="M87 48h1l.6 4.8.4 2.6c0 2.8-.6 4.2-2 6.6h-2l2-14z" fill="#81481E"/><path d="M37 37c2.7 1 4 2 5.8 4.2 1.5 3.6 1 6 .2 9.8h-1l-.3-1.9-.5-2.4-.5-2.4c-.7-2.6-1.8-3.5-3.7-5.3v-2z" fill="#A2493D"/><path d="M87 37h2l.9 2.9c.9 3.1.9 3.1 3.1 5.1l-3 2c-3-6.6-3-6.6-3-10z" fill="#D22B09"/><path d="M31 37l4 1v2l4 2-4 2v-2h-2l-2-5z" fill="#7A5573"/><path d="M77 22l6 1-1 5-3-1c-1.2-2.6-1.2-2.6-2-5z" fill="#6F1309"/><path d="M63 27c2.9.6 3.9.9 6 3-.4 2.1-.4 2.1-1 4l-3-2v-3h-2v-2z" fill="#B47A53"/><path d="M33 21l1 4h6l-2 4h-3c-1.7-1.7-1.7-1.7-3-4 .3-2.2.3-2.2 1-4z" fill="#87506F"/><path d="M63 13l1 2 3.4 1c3.6 1 3.6 1 5.6 4-3-.6-5.5-1.7-8.2-3l-2.2-1.2L61 15l2-2z" fill="#902D1D"/><path d="M89 86c1.9 3.1 2.2 5.4 2 9h-5l2-1c.5-1.9.5-1.9.6-4l.4-4z" fill="#EDB708"/><path d="M43 85h6l-1 3c-1.7.6-1.7.6-4 1l-5 2v-2l4-1v-3z" fill="#270803"/><path d="M79 68c3 2 3 2 3.7 5.1L83 76c-3-1-3-1-4.3-3.4C78 70 78 70 79 68z" fill="#B34C1C"/><path d="M85 68h8l-5 5-3-3v-2z" fill="#130704"/><path d="M77 47h2c-.3 2.9-.3 2.9-1 6l-3 2c0-3.8.2-5 2-8z" fill="#F53F19"/><path d="M47 43l4 4-1 2h-3l-2-5 2-1z" fill="#F69D08"/><path d="M73 30l4 4-1 3-4-2 1-5z" fill="#A02614"/><path d="M27 24l1 2 2 1h-2l-1 6h-3l3-9z" fill="#946860"/><path d="M65 20l5 1 1 4-6-2v-3z" fill="#FAA847"/><path d="M71 87c4.8.9 4.8.9 7 2l-1 3-7-3 1-2z" fill="#5E1E0B"/><path d="M48 80l3 2v2l-4-1v2l-4-1h2v-3l3-1z" fill="#971406"/><path d="M61 48c4 4.6 4 4.6 4 8-3-1-3-1-4.3-3.4C60 50 60 50 61 48z" fill="#FABC05"/><path d="M62 44c3.1 3 5 5.1 7 9l-8-5 1-4z" fill="#9A350B"/><path d="M10 37l2.3 2c2.4 1.8 3.7 2.6 6.7 3l-2 4v-2l-1.8-.8C13 42 11.6 40.9 10 39v-2z" fill="#170604"/><path d="M90 35c3.1.4 3.1.4 6 1l1 3-9-2 2-2z" fill="#5F2004"/><path d="M21 90l2 3h2l-1 3c-2 .7-2 .7-4 1l1-7z" fill="#EDB908"/><path d="M24 79h1v5l3 1h-3v2h-2l-1 3c1-7.4 1-7.4 2-11z" fill="#F6D912"/><path d="M85 74c4.9 1.9 4.9 1.9 6 3v5c-2.7-2.5-4.6-4.6-6-8z" fill="#8D2F0A"/><path d="M68 36v3c-2.5 1.7-2.5 1.7-5 3l-2-2c4.7-4 4.7-4 7-4z" fill="#F9BF07"/><path d="M46 35h6c0 3 0 3-1 7l-5-7z" fill="#C37B4C"/><path d="M23 33l3 1c-.7 2.4-.7 2.4-2 5-2.1.8-2.1.8-4 1l3-7z" fill="#7B3722"/><path d="M28 27h3c-.2 2.4-.2 2.4-1 5-2 1.3-2 1.3-4 2l2-7z" fill="#5A5C86"/><path d="M50 20h7l-1 3h-6v-3z" fill="#9B3843"/><path d="M62 80l2 1-1 3 1.5 1.4C66 87 66 87 66 89l-4-1c-1.1-5.7-1.1-5.7 0-8z" fill="#821B19"/><path d="M27 35l6 5-1 3-2-1v-2l-2-1-1-4z" fill="#241C20"/><path d="M27 70l3 1-3 1 .6 2.4.4 2.6-2 2c-1.3-3.8-.4-5.4 1-9z" fill="#F6E324"/><path d="M92 55h3v5l-4-1 1-4z" fill="#5F2422"/><path d="M54 55l3 1 1 3-1 2h-2l-2-5 1-1z" fill="#B83214"/><path d="M46 28v2h-3v2l-4 1v-3c2.6-1.5 3.9-2 7-2z" fill="#87394D"/><path d="M4 17h13v1H4v-1zM20 18h7v1h-7v-1zM58 97h6v1h-6v-1zM70 14l4 1zM38 6l4 1z" fill="#A1A1A1"/><path d="M84 99l3 1z" fill="#727272"/><path d="M91 32l3 1zM75 15l3 1zM42 7l3 1z" fill="#A1A1A1"/><path d="M26 99l2 1z" fill="#5B5B5B"/><path d="M82 98l2 1zM33 95l2 1zM40 91l2 1zM42 90l2 1zM95 33l2 1zM79 16l2 1z" fill="#A1A1A1"/></svg>