<svg xmlns="http://www.w3.org/2000/svg" width="100" height="100" viewBox="0 0 100 100"><path d="M79 18c1.9 1.5 1.9 1.5 3 3l-2 5-7 1c2.9 1.8 2.9 1.8 6.1 1.5L81 28l2 2 4 1v3l4 1v4l3 1-1 4 2 1-.4 1.7L93 54h-3c1.6 6 3.7 10.5 7.8 15.3C99 71 99 71 99 74l-2 .6-2.7.8-2.8.8c-2.5.8-2.5.8-5.1 2.2-4 1-7.6-.9-11.4-2.4l-.7 2.4C73 81 73 81 70.6 82c-3.3 0-4.1-1-6.6-3l-6-2-1 4-1.8-.5c-3.4-.8-6-.4-9.2.5l-2-4-6 1-1 3c-1.9.9-1.9.9-4 1-1.8-1.2-1.8-1.2-3-3v-4l-2 .5c-6.4 1.1-13.6.9-20-.5l-2-2c.4-3.6.4-3.6 1-7h2l-.6-1.7c-.4-2.7-.1-3.9 1-6.4l.8-2.1L12 52h6v-2h8l-2.3-1.7C21 46 21 46 19 43.8c-2.4-2.1-3.8-2.6-7-2.8l-3 2c-2.9.4-4.4.4-6.8-1.2C1 40 1 40 1 36l3.7-2 2.2-1.1C9 32 9 32 13 32l-.6-2.4L12 27c2.5-2.5 3.4-2.4 6.8-2.4 3.9 0 4.9.1 8 2.7L29 30c2.6 2.2 5.2 4.1 8 6l2-3 6 1 1-3 3-1 2 1v2l3-2 2.9-.8c3.7-1.4 5.4-3.2 8.1-6.2 4.6-4.8 7.2-6.6 14-6zm-9 10v3l2-2-2-1zm-51 5l-1 2c2.8 1.6 2.8 1.6 6 3l3-1c-1.7-2-1.7-2-4-4h-4zm54 3l2 2c2.1-.3 2.1-.3 4-1v-1h-6zm10 3l1 2 1-2h-2zm2 2v3l2-1-2-2zm-1 9v3l2-2-2-1z" fill="#E59F12"/><path d="M79 18c1.9 1.5 1.9 1.5 3 3l-2 5-7 1c2.9 1.8 2.9 1.8 6.1 1.5L81 28l2 2 4 1v3l4 1v4l3 1-1 4 2 1-.4 1.7L93 54h-3c1.6 6 3.7 10.5 7.8 15.3C99 71 99 71 99 74c-3.5 1.6-6.2 2.4-10 2l-2-2-2.2.5c-3.5.6-5.6-.2-8.8-1.5l-1-1-6-.6-3.4-.2L63 71l-1.5-5.3-.8-3C60 60 60 60 60 57h7c-1-1.2-1-1.2-3-2l2-5h-9c.6-3.3 1.4-6 3-9l-7-2c.2-1.9.2-1.9 1-4 2-1.2 2-1.2 4-2v3l2-2-1-2-2.3 1C54 34 54 34 51 34c1.9-2.3 3-3 5.9-3.9 3.8-1.3 5.4-3.1 8.1-6.1 4.6-4.8 7.2-6.6 14-6zm-9 10v3l2-2-2-1zm3 8l2 2c2.1-.3 2.1-.3 4-1v-1h-6zm10 3l1 2 1-2h-2zm2 2v3l2-1-2-2zm-1 9v3l2-2-2-1z" fill="#CD7109"/><path d="M18 50c8.6-.1 8.6-.1 12 1v3h-2v2h10l2-1c2.4 0 4.7.2 7 .4l4 .2c3 .4 3 .4 4 1.4l.1 5v2.8C55 67 55 67 54 68v5l-10 .6-2.8.1-2.7.2-2.5.1c-2 0-2 0-3-1-.5-2.7-.7-5.3-1-8 0 3.4.5 6.6 1 10h-2l1 5-2-1v-4l-2 .5c-6.4 1.1-13.6.9-20-.5l-2-2c.4-3.6.4-3.6 1-7h2l-.6-1.7c-.4-2.7-.1-3.9 1-6.4l.8-2.1L12 52h6v-2z" fill="#F0AE82"/><path d="M18.8 24.6c4 0 5 .2 8 2.7L29 30c2.6 2.2 5.2 4.2 8 6l2-3 6 1 1-3 3-1 2 1c-1 2-1 2-3 5l4 1c-.7 4.4-2 8-4 12-3 1.6-6.2 1-9.6 1H31l-.9-2c-1.5-2.7-3-3-6-4l-2-1c1.5 2 3.2 4 5 6-3.5-1-5-2-7.6-4.5-2.7-2.6-3.8-3.4-7.5-3.5l-3 2c-2.9.4-4.4.5-6.8-1.2C1 40 1 40 1 36l3.8-2 2-1.1c2.2-1 2.2-1 6.2-1l-.6-2.3L12 27c2.5-2.4 3.4-2.4 6.8-2.4zM19 33l-1 2c2.8 1.6 2.8 1.6 6 3l3-1c-1.8-2-1.8-2-4-4h-4z" fill="#C39783"/><path d="M75 54c3.6.3 4.7.7 7.2 3.5L84 60l2 1-1-4h3l1.2 2.3 1.7 3 1.6 3C94 68.1 94 68.1 96 71c-4 0-4 0-5.7-1.5l-1.5-2-1.6-2L86 64c2.3 2.7 3.9 4.6 5 8h5c-2 2-2 2-5.3 2H87l-2.6.6c-3.2.5-5.4-.4-8.4-1.6l-1-1-6-.6-3.4-.2L63 71l-1.5-5.3-.8-3C60 60 60 60 60 57h2c6.7.2 6.7.2 13-2v-1z" fill="#F0B870"/><path d="M49 32l4 2 2-2c3.1.4 3.1.4 6 1l-1 3h-2v-3c-3.4 2.3-3.4 2.3-5 6l7 1c0 3.9-1.4 6.5-3 10h9c-2 4-2 4-4 6h-3l1 12c-5-3-5-3-5.7-5l-.3-6-6.8-.7-3.7-.3c-3.7 0-4.9.5-7.5 3l-1-2-7-1c0-2 0-2 1.5-3.6L31 51l-1.8-.3c-2.7-.9-3.7-2-5.5-4.3l-1.5-1.9L21 43c3.6 0 5 1 8 3l2 3c3 .2 5.7.3 8.6.2l2.4-.1 6-.1.4-2.3c.6-3 1.6-5.8 2.6-8.7l-4-1 2-5z" fill="#BA0E06"/><path d="M71 28l2.8.6c3.1.6 3.1.6 5.5-.2L81 28l2 2 4 1v3l4 1v4l3 1-1 4 2 1-.4 1.7L93 54h-3c1.6 6 3.7 10.5 7.8 15.3C99 71 99 71 99 74c-3.5 1.6-6.1 2.2-10 2v-2l5-1-3-1-3.7-4-1.9-2.3L84 64c3 0 3 0 5.7 2.4C92 69 92 69 92 71l3-1-1.3-1.8-1.7-2.4-1.6-2.4c-1.3-2.2-1.9-3.9-2.4-6.4h-3l1 4c-3.9-1.7-3.9-1.7-5-4h2l-.6-2.9C82 51 82 51 83 49c.1-3.4 0-5.8-1-9l-3.9-.2c-2.1-.3-2.1-.3-4.1-.8-1.5-2-1.5-2-2-4l6-1v-3l-1.8-.4C74 30 74 30 71 28zm2 8l2 2c2.1-.3 2.1-.3 4-1v-1h-6zm10 3l1 2 1-2h-2zm2 2v3l2-1-2-2zm-1 9v3l2-2-2-1z" fill="#C4906A"/><path d="M18 27c3.5 0 6 .2 8.7 2.6 1.1 1.2 2.1 2.5 3 3.8C31 35.1 31 35.1 33 36v2l5 1 1-4 7 1 1-4h2l-1 4 4 1c-.7 4.4-2 8-4 12-3 1.5-6.3 1.1-9.6 1H31l-.8-2c-1.6-2.7-3.2-3-6.2-4l-1-2c2.8-.7 2.8-.7 6-1 1.9 1.4 1.9 1.4 3 3-3-2.5-4.3-4.5-5.4-8-1.1-3.5-1.4-3.9-4.7-5.9L19 29l-1-2z" fill="#D77616"/><path d="M79 18c1.9 1.5 1.9 1.5 3 3l-2 5-2-1 2-5c-2 .3-2 .3-4 1l-2 3-3 1-4 6h6v2h-2c-.8 2.5-1 3.8-.4 6.4.5 3.6-.8 5.6-2.6 8.6l-1.3-1.6L65 45c-2.1.3-3.5.5-5 2l7 2v1H57c.6-3.3 1.4-6 3-9l-7-2c.2-1.9.2-1.9 1-4 2-1.2 2-1.2 4-2v3l2-2-1-2-2.3 1C54 34 54 34 51 34c1.9-2.3 3-3 5.9-3.9 3.8-1.3 5.4-3.1 8.1-6.1 4.6-4.8 7.2-6.6 14-6z" fill="#DA8B0D"/><path d="M41.7 56.9h6.6c2.7 0 2.7 0 4.7 1 .7 2.8.7 5.4 1 8-2.6.5-5.3.8-8 1 2.4.8 4.7 1.5 7 2v3H35c1-4 1-4 2-6-.6-.2-1.3-.5-2-1h2l.5-3.3c.7-4.5.7-4.5 4.2-4.7z" fill="#F44A37"/><path d="M54 39l6 1c0 3.9-1.4 6.5-3 10h9c-2 4-2 4-4 6h-3l1 12c-5-3-5-3-5.7-5l-.3-6-7-1 4-1v-9h1l1 7c2-4.1 2-6.6 1-11v-3z" fill="#C81612"/><path d="M60 57c4-.3 6.3-.4 9.8 1.8 2.8 2.8 4.2 4.3 4.4 8.3C74 70 74 70 73 71H63l-1.5-5.3-.8-3C60 60 60 60 60 57z" fill="#F8110D"/><path d="M19 55h6c-2.9 3-5.3 5.1-9 7l-1 3c-2 .7-2 .7-4 1v2l2 1H8v2l2.2-.1c2.8.1 2.8.1 4.6 1.1 2.9 1.3 5.2 1.2 8.3 1.2h3.2c2.7 0 2.7 0 4.7-1.2l1 8-2-1v-4l-2 .5c-6.4 1.1-13.6.9-20-.5l-2-2c.4-3.6.4-3.6 1-7h2l-.6-1.7c-.4-2.8.2-3.9 1.6-6.3l1 6 .9-1.8C13 60 13 60 15 57h2v2h2v-4z" fill="#D2A691"/><path d="M93 45h2l-.4 1.7L93 54h-3c1.6 6 3.7 10.5 7.8 15.3C99 71 99 71 99 74c-3.5 1.6-6.1 2.2-10 2v-2l5-1-3-1-3.7-4-1.9-2.3L84 64c3 0 3 0 5.7 2.4C92 69 92 69 92 71l3-1-1.3-1.8-1.7-2.4-1.6-2.4c-1.3-2.2-1.9-3.9-2.4-6.4h-3l1 4c-3.9-1.7-3.9-1.7-5-4h2l-1-6h3l2-1-1 4 2 1 1-2h3l-.6-2.4L91 48l2-2v-1z" fill="#D1A18C"/><path d="M47.1 55.3l3.8.3C54 56 54 56 55 57l.1 5v2.7c0 2.3 0 2.3-1 3.3-.2 1.7-.2 3.3 0 5-3.4.2-6.7.3-10 .6l-3 .1-2.7.2-2.5.1C34 74 34 74 33 73l.4-4.6.3-2.5.3-1.9h2l.3-3.4.7-3.6c3.8-2.6 5.6-2 10.1-1.7zm-8 1.7c-2.3 3.3-2.3 4.3-2 8l-2 1h2c-.8 1-1.4 2-2 3v3h18v-3l-7-2 8-1c-.5-2.7-.8-5.3-1-8-4.8-.7-9.4-1.4-14-1z" fill="#F3CF8B"/><path d="M11.6 33.6c4 .5 6 2 9.4 4.3 2.8 1.7 5.7 1.7 9 2 2 2.2 2 2.2 3 4h-3c-.7-.5-1.4-1.2-2-2-1 .5-2 .8-3 1h-3l5 6c-3.4-1-5-2-7.5-4.4C16 41 13.6 41 9 41v-3l-2-2c2-2 2-2 4.6-2.4z" fill="#F7E66D"/><path d="M65.8 54.9c1 .6 1 .6 2.3 1l-1 2c-2.3-.2-4.7-.5-7.1-1l3 14h12l2 2c4 1 7.1 1.5 11 0l1 4c-2.7 1.7-4.3 2.3-7.3 1.6L75 76l-2 5-2-1 1-3v-5H61c-2.3-10.5-2.3-10.5-2-16 2.7-1.8 3.5-2.1 6.7-1.1z" fill="#ECB06B"/><path d="M18 50c8.6-.1 8.6-.1 12 1v3h-2v2l-3 1v-2h-6v4h-2v-2c-2.7 2.4-3.8 4.6-5 8l-2-1c-.2-4.5 0-7.9 2-12h6v-2z" fill="#C59367"/><path d="M65 35v5h2l1-3h2c1.1 3.6 1 4.8-.4 8.3L68 48l-1.2-1.6L65 45c-2.1.3-3.5.5-5 2l7 2v1H57c.4-2.6.9-4.8 2.1-7.2L60 41l-1-2 2-1v-2c2-1 2-1 4-1z" fill="#F8DF14"/><path d="M86 33l-1 2 5 1-1 4h3l2 7-3 1 1 5h-3l-1 3-3-2 1-2.6c1.1-3.8 1.5-6.4 1-10.4-2.3-2.8-2.3-2.8-5-5l-2-3c3-1 3-1 6 0z" fill="#CA7412"/><path d="M79 60c9.1 6.6 9.1 6.6 12 10v2h5c-2 2-2 2-5.3 2H87l-2.6.6c-3.3.5-5.4-.2-8.4-1.6l-1-3 2-2 1 4h7l-1-1.9-1.4-2.4-1.4-2.4C80 63 80 63 79 60z" fill="#F19E10"/><path d="M49 32l4 2 2-2c3.1.4 3.1.4 6 1l-1 3h-2v-3c-2.1 1.2-2.1 1.2-4 3-.3 2.4-.3 2.4.2 5l.3 2.5c.5 2.5.5 2.5 1.2 4.7L56 50c-2 2.3-2 2.3-4 4l-1-9-2 4c-1-3-1-3 .5-6l1.5-3-1-2-3-1 2-5z" fill="#891406"/><path d="M14 27c5 .6 9.4 2.4 13 6l1 7c-5.2.4-8-1.3-12.1-4.3-1.9-1.7-1.9-1.7-3-5C13 28 13 28 14 27zm5 6l-1 2c2.8 1.6 2.8 1.6 6 3l3-1c-1.7-2-1.7-2-4-4h-4z" fill="#BE8769"/><path d="M27.8 57.9l6.2.1-1 2h-3l-.9 2.2-3 6.8 3 1c-1 1-1 1-3 1.1h-8.3L15 71H8v-2l4.1-.5 2.5-.3c2.4-.2 2.4-.2 5.1.2 2.4-.2 2.4-.2 3.7-2.2L27 60l-2-1c1-1 1-1 2.8-1.1z" fill="#C40C0C"/><path d="M41.7 56.9h6.6c2.7 0 2.7 0 4.7 1v6c-2 .2-4 .2-6 0l-1-1h-2v-2h-2c-.3.8-.6 1.5-1 2-.3.5-.6.8-1 1-1-.2-2-.5-3-1 1-5.8 1-5.8 4.7-6z" fill="#F21712"/><path d="M21 42l4 2 2.1 1c1.9 1 1.9 1 3.9 4l3 1v2l2.4.4C39 53 39 53 41 55l-5 4-1-2-7-1c0-2 0-2 1.5-3.6L31 51l-1.8-.3c-2.7-.9-3.7-2-5.4-4.2l-1.6-1.9C21 43 21 43 21 42z" fill="#A73C0C"/><path d="M79 18c1.9 1.5 1.9 1.5 3 3l-2 5-2-1 2-5c-3.6.1-6.7.6-10 2-2.5 2.7-4.4 5.5-6.3 8.6C62 33 62 33 59 34v-2l-2.3 1C54 34 54 34 51 34c1.9-2.3 3-3 5.9-3.9 3.8-1.3 5.4-3.1 8.1-6.1 4.6-4.8 7.2-6.6 14-6z" fill="#C09685"/><path d="M79 43l2 1v5c-2 2-2 2-4.6 2.1L74 51l2 5h-5l-1 2-6-3c1.1-3.4 2-4.1 5-6h2l1 2 3-2 4-1v-5z" fill="#BC5716"/><path d="M64 51l2 1c-1.8 2-1.8 2-4 4h-3l1 12c-5-3-5-3-5.7-5l-.1-2c.1-3.8.1-3.8-1.2-6l2.2-.6 2.8-.8 2.7-.8c2.3-.6 2.3-.6 3.3-1.8z" fill="#5B0B04"/><path d="M50 38l-3 9h-2l-1-4h-3l3 5-8 1c1.6-5.3 4.5-7.5 9.1-10.2C47 38 47 38 50 38z" fill="#BF2914"/><path d="M78 57c3.4.6 5.4 1.8 8 4l-1-4h3l1.2 2.3 1.7 3 1.6 3C94 68.1 94 68.1 96 71c-4 0-4 0-5.4-1.3l-1.3-1.8c-2.9-3.6-6-6.1-9.8-8.7L78 58v-1z" fill="#EA150E"/><path d="M80 40h2c3.3 4.9 2 9.4 1 15v2c-3-1.2-6-2.5-9-4v-2l6-2v-2.3V40z" fill="#BA5907"/><path d="M76 20h4c-.9 4.8-.9 4.8-2 7l-2.9-.2c-1.5.2-1.5.2-3.1.2l-2 3 3-1-1 3-5-1-1 4c-.6-3.9 0-5 2.3-8.2C71 24 71 24 74 23l2-3z" fill="#C48E72"/><path d="M18 27c3.5 0 6 .2 8.7 2.6 1.1 1.2 2.1 2.5 3 3.8C31 35.1 31 35.1 33 36v2l5 2-3 5c-2-3-2-3-2-5h-2v-2h-2l-2.3-3.4c-2.2-3.2-3.9-4.4-7.7-5.6l-1-2z" fill="#F4D740"/><path d="M45 75l1 3 3.3-.6C52.9 77 54 77 57 79l1-4 9 2v3l-9-3-1 4-1.8-.5c-3.4-.8-6-.4-9.2.5l-2-4-6 1c2.5-3 2.7-3 7-3z" fill="#BA928D"/><path d="M31 64l2 1 .7 6c.2 2.2.2 2.2 2.3 4l-1 2h2v-2h2c-.7 3-.7 3-2 6-2.1.9-2.1.9-4 1-2.1-3.5-2.1-3.5-1.6-5.8L32 74l-1-7v-3z" fill="#AE6219"/><path d="M19 51l3 3-3 1v4h-2v-2c-2.7 2.4-3.8 4.6-5 8l-2-1v-6h2v-3h3v-2h4v-2z" fill="#D68B11"/><path d="M47 32h2l-.6 1.9L48 36l2 2-4.9 2.6-2.7 1.4-2.4 1-2-1c0-2.6.3-4.5 1-7l7 1 1-4z" fill="#F3AB15"/><path d="M35 69h18v3H35v-3z" fill="#F34B37"/><path d="M62 44l4 1 1 2 3-2 4 2-1 4-2 1v-3l-5 3v-2l-7-2 3-4z" fill="#EDA813"/><path d="M76 21c-2 3-2 3-5 4-1.3 1.6-1.3 1.6-2.4 3.4-2.1 3.2-3.8 4.6-7.6 5.6 8.1-15 8.1-15 15-13z" fill="#F6E048"/><path d="M30 72h1l1 8-2-1v-4l-2 .5c-6.7 1.1-13.3.4-20-.5v-2h13.4l2.9.1H27c2 .1 2 .1 3-1.1z" fill="#C08F76"/><path d="M54 71l1 3h-6l-1 4h-3v-3l-2.9.6C39 76 39 76 37 75v2h-2v-4h19v-2z" fill="#E7910D"/><path d="M72 73c.6 2.8.6 2.8 1 6l-2 3-4-1v-3l-3-1v-2l-3-1 4.4-.5 2.4-.3L72 73z" fill="#C37710"/><path d="M35 58h1v6h-2l-1 4-2-3 .4 2.2L33 75h-2l-1-2-4 1 1.4-1.3C29.2 71 29.2 71 30 68h-2c1.9-4.7 1.9-4.7 3-7l3-1 1-2z" fill="#E8A61F"/><path d="M51 37c1.2 3.6.7 4.3-.8 7.6L49.1 47C48 49 48 49 46 50H34v-1l9-2-2-4h3l1 4h2l.6-2 .8-2.4.8-2.6c.8-2 .8-2 1.8-3z" fill="#EEC535"/><path d="M54 68l6 1v2h-2v2h-2v4l-9 2 2-5h6l-1-6z" fill="#A5490B"/><path d="M22 57l2 1c-.2 1.9-.2 1.9-1 4-2 1.3-2 1.3-4 2v3l-8 1v-2l4-1 .1-1.7c1.3-3.4 3.9-4.5 6.9-6.3z" fill="#DD261D"/><path d="M48 30l3 1-1 2-3-1-1 4-7-1-1 5-4-1-1-5 4 2 2-3 6 1 1-3 2-1z" fill="#C39D92"/><path d="M72 57c1.8.2 1.8.2 4 1 2 2.4 2 2.4 3.8 5.4l1.8 3C83 69 83 69 83 71c-1.8-.1-1.8-.1-4-1-2-2.7-2-2.7-3.7-6l-1.9-3.3C72 58 72 58 72 57z" fill="#C91711"/><path d="M83 37c3.9 1.8 3.9 1.8 5 4v9l-5 1v-3.7c0-3.3-.3-6.1-1-9.3l1-1zm0 2l1 2 1-2h-2zm2 2v3l2-1-2-2z" fill="#BE9483"/><path d="M86 33l-1 2 5 1-1 4h3v2l-4 1-1.7-2.7c-2-2.8-3.8-5-6.3-7.3 3-1 3-1 6 0z" fill="#F7D01B"/><path d="M10 70c1.9-.2 1.9-.2 4.1 0h2.5c.8.2 1.7.2 2.5.3l2.6.2 6.3.5v2c-2.8 1-4.1 1-7 .9l-2.3-.2-2.4-.1-2.4-.2L8 73l2-3z" fill="#E4A25C"/><path d="M54 39l6 1c0 3.9-1.4 6.5-3 10-2.6-2.7-3-3.9-3.2-7.7L54 39z" fill="#C22915"/><path d="M4 36c2.6.4 2.6.4 5 1 1.1 3.8 1.1 3.8 0 6H4l-2-5 2-2z" fill="#A24526"/><path d="M27.8 57.9l6.2.1-1 2h-3l-.9 2.2c-1 2.7-2.3 4.6-4 6.8-.8-1-1.5-2-2-3 1.2-2 2.5-4 4-6l-2-1c1-1 1-1 2.7-1.1z" fill="#ED0E0C"/><path d="M43.3 54.9c1.3 0 2.5.2 3.8.4l3.8.3C54 56 54 56 55 57l-1 7-2-4 1-2H37c3-3 3-3 6.3-3.1z" fill="#E79B74"/><path d="M74 42h5c.6 2.9.6 2.9 1 6l-2 2c-2.1-.4-2.1-.4-4-1-1.1-4.7-1.1-4.7 0-7z" fill="#B85F12"/><path d="M64 59l5 2 1 7-5-1-1-8z" fill="#F4BB56"/><path d="M25 62c-.6 3-1.3 4.4-3 7l-9-1v-1l6-1v-3c2-1 2-1 6-1z" fill="#EEAF6E"/><path d="M87 73l2 1-1 4c-1.6.8-1.6.8-4 1-2.5-1.1-4.7-2.5-7-4v-1h3.3c3.7.2 3.7.2 6.7-1z" fill="#A05C43"/><path d="M54 62h1v5l-1 1v5h-6v-1h5v-3l-3.3-.4C46 68 46 68 43 66l10-1 1-3z" fill="#F6D79B"/><path d="M85 50h2l-1 4 3 2-1 3v-2h-3l1 4c-3.9-1.7-3.9-1.7-5-4h2l-1-6h3v-1z" fill="#E0B282"/><path d="M77 56l-1 3-3-1 2 3.4c1.2 1.9 1.2 1.9 2 3.6l-1 2h-2l-3-5.2-3-4.8c3.2-1 5.7-1 9-1z" fill="#F6C787"/><path d="M30.8 43.2C33 46 33 46 33 50l-4-2v-2l-2.5-.8C24 44 24 44 23 42c3.8-1.4 4.6-1.3 7.8 1.2z" fill="#E8AC13"/><path d="M49 32l4 2 2-2c3.1.4 3.1.4 6 1l-1 3h-2v-3l-2.7 2.6c-2.9 2.4-2.9 2.4-6.2 2.2L47 37l2-5z" fill="#A75123"/><path d="M61 41l3 3-4 3 7 2v1H57c.5-3.8 1.5-6 4-9z" fill="#EDC039"/><path d="M10 39c3.4 0 6.7.2 10 1 2.4 2.9 2.4 2.9 4 6 1.6 1.8 1.6 1.8 3 3-3.3-1-5-2-7.5-4.6C16 41 13.7 41 9 41l1-2z" fill="#BF8F85"/><path d="M76 68l2 1v3l3.4-.1C85 72 85 72 87 74c-4.3 1.3-7 .8-11-1l-1-3 1-2z" fill="#E7A011"/><path d="M75 54l5 1 1 2-2 1 5 5-4-2-2 2c-1.6-3-2.4-5.7-3-9z" fill="#E6B585"/><path d="M60 57h6v2h-2l-1 6h-2l-1-8z" fill="#B6120D"/><path d="M73 29l5 2v3l-6 1v2l-4-1 3-3h2v-4z" fill="#B85E0A"/><path d="M73 71l4 2v2l2 1h-4l-2 5-2-1 1-3v-2.6c0-2.4 0-2.4 1-3.4z" fill="#B58476"/><path d="M79 43l2 1v5c-2 2-2 2-4.6 2.1L74 51l1 4-4-1c1.2-2.4 1.2-2.4 3-5 2.7-.8 2.7-.8 5-1v-5z" fill="#A63D07"/><path d="M79 50c4 4.8 4 4.8 4 7-3-1.2-6-2.5-9-4v-2l5-1z" fill="#CD700C"/><path d="M76 20h4l-1 5-4 1-1-3 2-3z" fill="#A13111"/><path d="M37 75h2c-.7 3-.7 3-2 6-2.1.9-2.1.9-4 1l-1-4 5-1v-2z" fill="#955739"/><path d="M37 66l4.4.4 2.4.2C46 67 46 67 48 69H36l1-3z" fill="#ED856C"/><path d="M20 40l4.8-.3 2.7-.1c2.5.4 2.5.4 4.3 2.4l1.2 2h-3l-2-2-3 1-5-2v-1z" fill="#F7E372"/><path d="M29 36h4v2l5 2-3 5c-2-3-2-3-2-5h-2v-2h-2v-2z" fill="#EEC324"/><path d="M14 27l5 1 1 4h-5l-2-4 1-1z" fill="#7E200B"/><path d="M62 44l4 1 1 4-8-1 3-4z" fill="#D12517"/><path d="M56 33h2v3l2 1c-2.6 1.5-3.9 2-7 2 .6-2.9.9-3.9 3-6z" fill="#DF820B"/><path d="M15 34l1.8.7 2.5.8 2.3.8c2.6.9 2.6.9 6.4.7v3c-4.8.7-7.6-1.3-11.4-3.8L15 35v-1z" fill="#C8977B"/><path d="M67 31h6v2h-2l-1 3h-2v2h-2l1-7z" fill="#EBA019"/><path d="M81 64c4.6 1.5 6.5 5.2 9 9h-5l-1.4-3.4c-.9-1.9-1.6-3.8-2.6-5.6z" fill="#EFC718"/><path d="M34 50l4.3.8 2.4.5c2.5.7 3.6 1.7 5.3 3.7-4.3-.5-8-1.2-12-3v-2z" fill="#4D0C05"/><path d="M21 42c3 1.4 5.6 2.8 8 5 .8 2.2.8 2.2 1 4-3.3-1-4-2-6.2-4.5l-1.6-1.9C21 43 21 43 21 42z" fill="#BB6829"/><path d="M40 44l4 4-8 1c1-3 1-3 4-5z" fill="#C71E18"/><path d="M23 27c2.7.2 4.5.5 6.4 2.3C33 33.5 33 33.5 33 36c-3.8-1.5-5.6-3.8-8-7l-2-2z" fill="#C29171"/><path d="M35 73h9l-3 3c-2.2-.3-2.2-.3-4-1v2h-2v-4z" fill="#F1B808"/><path d="M19 51l3 3-3 1v4h-2v-2l-2-1h2v-3h2v-2z" fill="#C46C12"/><path d="M9 36l8 1 1 3-8-1-1-3z" fill="#E9B214"/><path d="M58 75l9 2v3l-10-2 1-3z" fill="#BC8470"/><path d="M68 37h2l1 5-3 2-3-4h2l1-3z" fill="#E5C975"/><path d="M60 29l2 4-3 1v-2l-2.3 1C54 34 54 34 51 34c2.5-3 5.2-4 9-5z" fill="#D2AFA2"/><path d="M24 56l4 1-2 2v4l-3-2c0-3 0-3 1-5z" fill="#F5C595"/><path d="M66 52c-1.8 2-1.8 2-4 4h-3l-1 2c.2-2.4.2-2.4 1-5 4.2-2.4 4.2-2.4 7-1z" fill="#4E150C"/><path d="M43 66h9v3c-3.7-.5-5.8-.9-9-3z" fill="#F4A987"/><path d="M40 60l4 1-1 4h-6c1-2 1-2 3-5z" fill="#F66E53"/><path d="M84 45h4v5l-5 1 1-6z" fill="#D39244"/><path d="M47 32h2l-.6 1.9L48 36l2 2-6 2c1.9-5.7 1.9-5.7 3-8z" fill="#DE880D"/><path d="M72 77c0 3 0 3-1 5l-4-1 1-3c2-.7 2-.7 4-1z" fill="#814332"/><path d="M55 61l3 3 2-2v6c-2.5-1.2-2.5-1.2-5-3v-4z" fill="#B42D09"/><path d="M75 45h5c-.3 2-.3 2-1 4l-3 1-1-5z" fill="#C98756"/><path d="M54 68l6 1v2l-5 1-1-4z" fill="#AD1105"/><path d="M20 34h3l-1 2-2-2zM90 77l3 1zM77 77l2 1zM22 77l2 1zM18 77l2 1z" fill="#95888D"/></svg>