<svg t="1779376388451" class="icon" viewBox="0 0 1025 1024" version="1.1" xmlns="http://www.w3.org/2000/svg" p-id="16260" xmlns:xlink="http://www.w3.org/1999/xlink" width="200.1953125" height="200"><path d="M303.936 836c27.136 0 53.792-13.12 69.984-37.408 25.728-38.592 15.296-90.752-23.296-116.48l-66.08-44.064c11.296-3.072 23.2-4.768 35.488-4.768 74.4 0 134.688 60.288 134.688 134.688s-60.32 134.688-134.688 134.688c-72.416 0-131.456-57.12-134.56-128.768l71.968 47.968c14.336 9.536 30.496 14.112 46.528 14.112zM853.344 0c93.888 0 170.656 76.8 170.656 170.688l0 682.624c0 93.952-76.768 170.688-170.656 170.688l-682.656 0c-93.888 0-170.688-76.736-170.688-170.688l0-203.04 121.344 80.896c-11.648 63.168 6.944 130.816 55.808 179.68 78.912 78.912 206.816 78.912 285.728 0 48.48-48.48 67.136-115.424 56.064-178.176l249.056-222.976c46.24-6.624 90.816-27.744 126.4-63.328 87.488-87.488 87.488-229.312 0-316.768s-229.312-87.488-316.8 0c-35.584 35.584-56.672 80.16-63.328 126.4l0 0-204.704 310.24c-31.84 1.632-63.392 10.752-91.712 27.392l-217.856-145.248 0-277.696c0-93.888 76.8-170.688 170.688-170.688l682.656 0zM896 288c0-88.352-71.648-160-160-160s-160 71.648-160 160 71.648 160 160 160 160-71.648 160-160zM640 288c0-53.024 42.976-96 96-96s96 42.976 96 96-42.976 96-96 96-96-42.976-96-96z" fill="#444444" p-id="16261"></path></svg>