<svg t="1779375888512" class="icon" viewBox="0 0 1024 1024" version="1.1" xmlns="http://www.w3.org/2000/svg" p-id="5410" xmlns:xlink="http://www.w3.org/1999/xlink" width="200" height="200"><path d="M1008.64 15.36h-972.8C17.92 15.36 12.8 20.48 12.8 38.4v972.8h977.92c15.36 0 17.92-2.56 17.92-17.92V15.36zM537.6 576v-99.84c0-10.24 2.56-17.92 12.8-25.6 69.12-48.64 145.92-71.68 232.96-66.56 15.36 0 20.48-2.56 20.48-17.92 0-46.08 0-46.08-46.08-46.08-69.12 0-133.12 20.48-192 58.88-5.12 5.12-12.8 12.8-20.48 7.68-10.24-2.56-7.68-12.8-7.68-20.48v-2.56c0-56.32 0-56.32 48.64-84.48 84.48-46.08 174.08-56.32 266.24-30.72 15.36 5.12 20.48 10.24 20.48 25.6v194.56c0 17.92-5.12 23.04-23.04 17.92-74.24-20.48-148.48-17.92-220.16 10.24-15.36 5.12-23.04 12.8-20.48 30.72 2.56 12.8-5.12 30.72 2.56 38.4 7.68 7.68 23.04-5.12 35.84-10.24 69.12-20.48 138.24-23.04 207.36-2.56 12.8 2.56 17.92 7.68 17.92 23.04v48.64c0 17.92-5.12 20.48-23.04 17.92-87.04-23.04-171.52-15.36-250.88 25.6-12.8 5.12-23.04 12.8-33.28 20.48-7.68 5.12-12.8 12.8-23.04 7.68-7.68-5.12-5.12-15.36-5.12-25.6v-94.72z m335.36 153.6c-2.56 12.8 0 25.6 0 38.4 0 20.48-2.56 23.04-23.04 17.92-64-17.92-128-17.92-192 2.56-43.52 12.8-84.48 35.84-120.32 64-20.48 17.92-23.04 17.92-43.52 0-64-56.32-140.8-79.36-225.28-76.8-30.72 0-58.88 5.12-87.04 12.8-12.8 5.12-20.48 2.56-20.48-15.36v-194.56c0-12.8 2.56-17.92 15.36-20.48 12.8-2.56 25.6-7.68 40.96-10.24 7.68-5.12 12.8 0 12.8 12.8v112.64c0 12.8 2.56 15.36 15.36 15.36 40.96-2.56 40.96-2.56 40.96-40.96v-153.6c0-12.8-2.56-17.92-17.92-17.92-33.28 0-64 2.56-94.72 12.8-12.8 5.12-17.92 0-17.92-12.8v-56.32c0-12.8 5.12-17.92 15.36-20.48 30.72-10.24 64-12.8 94.72-12.8 12.8 0 20.48-2.56 20.48-17.92 0-48.64 0-48.64-51.2-43.52-20.48 2.56-40.96 5.12-58.88 12.8-15.36 5.12-20.48 0-20.48-15.36v-25.6c0-40.96 0-40.96 40.96-51.2 25.6-5.12 48.64-7.68 74.24-7.68 7.68 0 15.36 0 15.36-12.8s7.68-12.8 17.92-12.8c12.8 2.56 25.6 2.56 35.84 5.12 12.8 2.56 20.48 5.12 17.92 20.48-2.56 10.24 7.68 10.24 15.36 12.8 38.4 12.8 71.68 28.16 104.96 51.2 10.24 7.68 15.36 15.36 12.8 28.16v38.4c0 5.12 2.56 12.8-5.12 17.92-7.68 5.12-12.8-2.56-17.92-5.12-28.16-17.92-58.88-33.28-92.16-43.52-12.8-2.56-17.92-5.12-17.92 10.24 0 43.52 0 43.52 40.96 58.88 17.92 7.68 33.28 15.36 51.2 23.04 15.36 2.56 30.72 7.68 35.84 25.6 10.24 25.6 5.12 51.2 2.56 76.8 0 12.8-12.8 7.68-20.48 2.56-28.16-20.48-58.88-33.28-92.16-46.08-12.8-5.12-20.48-5.12-20.48 12.8 0 43.52 0 43.52 40.96 58.88 28.16 10.24 51.2 30.72 79.36 43.52 7.68 2.56 12.8 10.24 12.8 20.48v51.2c0 17.92-5.12 20.48-20.48 10.24-28.16-20.48-58.88-33.28-92.16-46.08-15.36-5.12-20.48-5.12-20.48 12.8 2.56 35.84 0 35.84 33.28 48.64 38.4 12.8 71.68 33.28 102.4 58.88 12.8 12.8 23.04 10.24 35.84 0 94.72-76.8 199.68-99.84 317.44-69.12 23.04 12.8 30.72 20.48 28.16 38.4z" fill="#E90000" p-id="5411"></path><path d="M488.96 458.24c-7.68-15.36-20.48-23.04-35.84-25.6 12.8 7.68 25.6 12.8 35.84 25.6z" fill="#C8212B" p-id="5412"></path></svg>